<svg version="1.1" id="Layer_1" xmlns="http://www.w3.org/2000/svg" xmlns:xlink="http://www.w3.org/1999/xlink" x="0px" y="0px"
	 width="100%" viewBox="0 0 447 253" enable-background="new 0 0 447 253" xml:space="preserve">
<path fill="#020202" opacity="1.000000" stroke="none" 
	d="
M290.000000,254.000000 
	C193.333344,254.000000 97.166702,254.000000 1.000039,254.000000 
	C1.000026,169.666702 1.000026,85.333397 1.000013,1.000073 
	C149.999939,1.000048 298.999878,1.000048 447.999878,1.000024 
	C447.999908,85.333260 447.999908,169.666519 447.999939,253.999878 
	C395.500000,254.000000 343.000000,254.000000 290.000000,254.000000 
M46.499992,119.902916 
	C55.996868,119.899857 65.499550,120.087616 74.987732,119.798843 
	C78.729401,119.684967 79.452850,120.984688 79.363815,124.390778 
	C79.124435,133.548355 79.229759,142.715393 79.228447,151.878677 
	C79.225143,175.037766 79.189873,198.197052 79.274727,221.355850 
	C79.300095,228.280243 80.848312,230.183014 86.396233,231.565002 
	C106.244888,236.509308 126.045532,241.653641 145.944412,246.385590 
	C154.283096,248.368530 162.962860,251.354172 171.246368,250.722244 
	C213.557297,247.494385 255.781464,243.144760 298.051819,239.364487 
	C328.225861,236.666031 358.423096,234.225357 388.613922,231.717255 
	C397.074036,231.014420 398.334900,229.783493 398.338074,221.343994 
	C398.350037,189.687622 398.340790,158.031250 398.346741,126.374886 
	C398.347931,119.927330 398.362274,119.916924 404.975006,119.905983 
	C414.305267,119.890549 423.635559,119.890503 432.965820,119.887665 
	C437.097168,119.886414 440.772247,118.794487 442.003204,114.401741 
	C443.210144,110.094910 441.529755,106.787369 437.767761,104.156837 
	C422.856812,93.730469 408.068085,83.129402 393.227783,72.601883 
	C367.459229,54.322060 341.646423,36.104156 315.956543,17.714479 
	C311.987549,14.873366 308.029877,13.437642 303.075317,13.449944 
	C250.259491,13.581077 197.443146,13.570798 144.627213,13.460702 
	C140.052811,13.451167 136.308975,14.659375 132.612000,17.310171 
	C110.174126,33.398476 87.631386,49.340595 65.113991,65.317902 
	C47.206669,78.024109 29.277569,90.699631 11.376942,103.415253 
	C7.597687,106.099823 3.905563,109.090027 5.864048,114.457298 
	C7.639210,119.322174 11.844660,120.023933 16.510180,119.948540 
	C26.171173,119.792412 35.836464,119.902321 46.499992,119.902916 
z"/>
<path fill="#DFA304" opacity="1.000000" stroke="none" 
	d="
M45.999992,119.902878 
	C35.836464,119.902321 26.171173,119.792412 16.510180,119.948540 
	C11.844660,120.023933 7.639210,119.322174 5.864048,114.457298 
	C3.905563,109.090027 7.597687,106.099823 11.376942,103.415253 
	C29.277569,90.699631 47.206669,78.024109 65.113991,65.317902 
	C87.631386,49.340595 110.174126,33.398476 132.612000,17.310171 
	C136.308975,14.659375 140.052811,13.451167 144.627213,13.460702 
	C197.443146,13.570798 250.259491,13.581077 303.075317,13.449944 
	C308.029877,13.437642 311.987549,14.873366 315.956543,17.714479 
	C341.646423,36.104156 367.459229,54.322060 393.227783,72.601883 
	C408.068085,83.129402 422.856812,93.730469 437.767761,104.156837 
	C441.529755,106.787369 443.210144,110.094910 442.003204,114.401741 
	C440.772247,118.794487 437.097168,119.886414 432.965820,119.887665 
	C423.635559,119.890503 414.305267,119.890549 404.975006,119.905983 
	C398.362274,119.916924 398.347931,119.927330 398.346741,126.374886 
	C398.340790,158.031250 398.350037,189.687622 398.338074,221.343994 
	C398.334900,229.783493 397.074036,231.014420 388.613922,231.717255 
	C358.423096,234.225357 328.225861,236.666031 298.051819,239.364487 
	C255.781464,243.144760 213.557297,247.494385 171.246368,250.722244 
	C162.962860,251.354172 154.283096,248.368530 145.944412,246.385590 
	C126.045532,241.653641 106.244888,236.509308 86.396233,231.565002 
	C80.848312,230.183014 79.300095,228.280243 79.274727,221.355850 
	C79.189873,198.197052 79.225143,175.037766 79.228447,151.878677 
	C79.229759,142.715393 79.124435,133.548355 79.363815,124.390778 
	C79.452850,120.984688 78.729401,119.684967 74.987732,119.798843 
	C65.499550,120.087616 55.996868,119.899857 45.999992,119.902878 
M317.225830,208.209625 
	C317.225830,208.209625 317.198792,208.232880 316.468323,208.270981 
	C309.553436,210.934860 307.085052,209.204742 306.979462,201.611099 
	C306.960968,200.281265 306.974091,198.950974 306.974091,197.620895 
	C306.973724,173.845657 307.020782,150.070145 306.890320,126.295609 
	C306.878967,124.231743 305.697144,122.174301 304.244171,119.974922 
	C302.432007,119.924812 300.620178,119.854988 298.807648,119.827843 
	C288.440582,119.672615 278.073334,119.527534 266.859192,119.266418 
	C262.995697,119.825233 264.078583,122.913490 264.072479,125.156494 
	C263.998627,152.303040 264.025818,179.449875 264.018250,206.596619 
	C264.017792,208.260818 264.542633,210.315338 263.768524,211.497986 
	C262.597534,213.286942 260.589325,215.428009 258.765137,215.600235 
	C257.344116,215.734375 255.254242,213.338303 254.231552,211.610870 
	C253.491440,210.360718 253.977905,208.363495 253.977478,206.699417 
	C253.969818,176.721420 253.983459,146.743393 253.952606,116.765419 
	C253.949417,113.669495 254.526016,110.175613 250.020538,109.059792 
	C250.020538,109.059792 249.930450,108.815445 249.704102,108.224457 
	C248.971008,107.860603 248.237900,107.496750 247.005096,107.125862 
	C246.691956,106.760880 246.378830,106.395905 245.837143,105.388145 
	C240.769821,101.970604 235.702499,98.553062 230.093491,95.098045 
	C229.751923,94.701302 229.410355,94.304565 228.778290,93.304321 
	C228.015869,92.914436 227.253433,92.524559 226.194977,92.192085 
	C226.194977,92.192085 226.071014,91.917206 225.814575,91.317123 
	C225.087799,90.923332 224.361038,90.529533 223.201416,89.936501 
	C223.201416,89.936501 223.041336,89.487709 222.826370,88.905830 
	C219.410706,86.266106 215.995041,83.626389 212.579376,80.986664 
	C212.059265,81.317932 211.539169,81.649200 211.019058,81.980469 
	C211.019058,83.906555 211.019043,85.832634 211.019058,87.758720 
	C211.019272,120.745209 211.019638,153.731689 211.019592,186.718185 
	C211.019592,196.047699 211.202957,205.383301 210.895691,214.702698 
	C210.812805,217.216110 209.940094,220.529144 208.190384,221.973282 
	C205.389923,224.284668 202.649536,221.940567 200.463852,219.668060 
	C200.135208,219.326355 199.608261,219.175415 198.866287,218.051285 
	C198.828842,174.205307 198.789368,130.359344 198.769608,86.513359 
	C198.769241,85.698120 199.002716,84.882782 199.736557,83.810844 
	C201.966522,81.772011 204.196487,79.733170 207.023453,77.148491 
	C205.172821,76.353722 203.805176,75.766373 202.139404,75.192413 
	C202.139404,75.192413 202.075363,74.900955 201.896912,74.243454 
	C198.789734,72.206635 195.682556,70.169815 192.035172,68.229164 
	C191.707184,68.083382 191.379196,67.937607 190.638214,67.140938 
	C187.838120,66.928520 185.038025,66.716103 181.605820,66.814468 
	C180.466339,66.648438 179.326843,66.482414 177.556107,65.819633 
	C172.426407,64.685547 171.940399,65.089157 171.938538,71.155159 
	C171.922195,124.478584 171.928177,177.802002 171.934677,231.125427 
	C171.934814,232.290009 171.747055,233.557724 172.138321,234.591354 
	C172.564621,235.717621 173.658966,237.555679 174.300140,237.490509 
	C183.228912,236.582932 192.129898,235.401947 201.753632,233.997559 
	C202.515167,234.040909 203.276718,234.084259 204.722687,234.526077 
	C208.857391,233.966599 212.992081,233.407120 217.743958,232.592148 
	C218.617310,232.633133 219.490646,232.674118 221.301285,232.896576 
	C224.207611,232.402908 227.113937,231.909256 230.820175,231.123428 
	C232.228302,231.128479 233.636444,231.133530 235.744781,231.543182 
	C237.545639,231.694870 239.365326,232.093002 241.144226,231.957169 
	C250.689407,231.228256 260.240692,230.517639 269.756958,229.494476 
	C275.588287,228.867523 281.360535,227.690872 287.679779,226.500259 
	C288.237457,226.566742 288.795105,226.633224 290.309967,226.881577 
	C293.549713,226.371796 296.789490,225.862000 300.821625,225.069000 
	C302.215637,225.070084 303.609680,225.071167 305.690399,225.479462 
	C307.159729,225.643311 308.647156,226.044571 310.095520,225.933929 
	C323.283875,224.926529 336.471985,223.901260 349.642578,222.690018 
	C351.865936,222.485550 354.005188,221.367035 356.661682,220.332611 
	C357.207855,220.427750 357.753998,220.522873 359.277313,220.833710 
	C362.863129,220.325607 366.448944,219.817505 370.829163,219.049271 
	C372.214935,219.047974 373.600739,219.046692 375.653656,219.450638 
	C383.271851,220.725296 385.984253,219.317596 385.997345,213.649261 
	C386.066620,183.678589 386.069427,153.707458 385.910736,123.737465 
	C385.903076,122.287651 384.152679,120.847061 382.496521,119.698029 
	C379.015381,119.840179 375.534210,119.982330 371.356506,120.412033 
	C370.916321,122.607330 370.102600,124.801064 370.093445,126.998154 
	C369.996918,150.134247 370.110107,173.271683 369.883636,196.405991 
	C369.863770,198.435974 368.146667,201.814285 366.689941,202.129944 
	C364.739685,202.552582 362.243408,200.660263 360.047180,199.623032 
	C359.352356,199.294891 358.867767,198.521576 358.031494,197.051819 
	C357.997253,172.865875 357.890472,148.679550 358.012573,124.494392 
	C358.029480,121.146667 357.049866,119.565552 353.044739,119.170395 
	C348.179260,119.141113 343.313751,119.111839 337.707001,119.580238 
	C331.623962,119.580238 325.540894,119.580238 319.164825,119.580238 
	C319.164825,122.429596 319.164825,124.249634 319.164825,126.069679 
	C319.164764,150.723404 319.176270,175.377151 319.142609,200.030823 
	C319.139923,202.005646 318.825897,203.980026 318.132599,206.195389 
	C317.834473,206.855652 317.536377,207.515930 317.225830,208.209625 
M182.684021,41.835754 
	C198.026627,52.737003 213.394852,63.602436 228.702957,74.551895 
	C239.212723,82.069252 249.442581,89.998543 260.191711,97.151337 
	C265.020782,100.364738 269.390411,104.189011 276.445007,104.109207 
	C318.421783,103.634308 360.406677,103.874886 402.388824,103.875175 
	C404.134399,103.875183 405.879974,103.875175 408.501770,103.875175 
	C407.278259,102.717552 406.867462,102.234978 406.369659,101.871552 
	C392.711334,91.900177 379.149658,81.791977 365.352509,72.016228 
	C346.838837,58.898685 328.216492,45.929844 309.442688,33.189114 
	C306.651001,31.294548 302.780121,30.114117 299.400452,30.095858 
	C260.251556,29.884365 221.101120,29.960249 181.951080,29.959906 
	C177.556625,29.959867 173.162155,29.959902 168.767700,29.959902 
	C168.595490,30.452780 168.423264,30.945658 168.251038,31.438534 
	C172.857529,34.780884 177.464035,38.123230 182.684021,41.835754 
M150.935913,70.201889 
	C146.967499,72.942482 143.185776,76.023430 138.979645,78.330658 
	C134.518707,80.777626 133.448685,84.150146 133.523651,88.965332 
	C133.762253,104.293777 133.530945,119.629074 133.536224,134.961716 
	C133.546371,164.460770 133.562347,193.959991 133.706802,223.458496 
	C133.715347,225.204391 134.496506,228.148422 135.572647,228.493454 
	C142.940186,230.855545 150.482666,232.671951 158.603821,234.833191 
	C158.603821,178.698807 158.603821,123.656563 158.603821,67.979759 
	C155.992447,68.685593 153.804337,69.277016 150.935913,70.201889 
M93.436562,122.541832 
	C93.436470,123.540329 93.436287,124.538826 93.436302,125.537323 
	C93.436615,154.826279 93.403374,184.115341 93.515984,213.403870 
	C93.523163,215.272034 94.261902,218.464783 95.337692,218.788223 
	C102.888412,221.058243 110.617180,222.736069 118.457993,224.644379 
	C118.457993,180.615387 118.457993,137.218353 118.457993,92.873833 
	C112.760590,96.854080 108.138458,100.706955 102.961784,103.550156 
	C95.605904,107.590233 91.747559,112.978508 93.436562,122.541832 
M56.014938,91.535095 
	C50.685001,95.345703 45.355068,99.156311 40.025131,102.966927 
	C49.368542,103.902145 58.335239,103.528763 67.253532,104.025101 
	C73.901581,104.395096 79.637817,102.930740 84.750305,98.809891 
	C86.170876,97.664864 87.346954,96.186478 88.846619,95.174248 
	C104.006599,84.941628 119.365440,74.994698 134.329773,64.485313 
	C140.783112,59.953152 146.421066,54.265728 152.482742,49.166477 
	C154.230759,47.695992 156.164246,46.445946 158.663361,44.619251 
	C153.442505,40.892994 148.631790,37.696682 144.104706,34.139404 
	C141.388824,32.005318 139.528900,32.233383 136.719498,34.246037 
	C110.096252,53.318928 83.337395,72.202522 56.014938,91.535095 
z"/>
<path fill="#070604" opacity="1.000000" stroke="none" 
	d="
M289.352783,226.699707 
	C288.795105,226.633224 288.237457,226.566742 287.052856,226.449921 
	C277.832001,227.023972 269.226044,227.518417 260.647491,228.309402 
	C252.098907,229.097626 243.577744,230.183319 235.044571,231.138580 
	C233.636444,231.133530 232.228302,231.128479 230.006348,231.125183 
	C226.249664,231.656326 223.306839,232.185715 220.363998,232.715088 
	C219.490646,232.674118 218.617310,232.633133 217.068222,232.580872 
	C212.274414,233.088943 208.156326,233.608276 204.038254,234.127609 
	C203.276718,234.084259 202.515167,234.040909 200.951736,233.981796 
	C193.514648,234.443649 186.874847,234.865463 180.245621,235.415131 
	C174.051132,235.928772 173.561890,235.585419 173.560837,229.546173 
	C173.551743,177.079727 173.599670,124.613159 173.462646,72.147064 
	C173.452850,68.403183 174.615723,66.649017 178.187363,66.316383 
	C179.326843,66.482414 180.466339,66.648438 182.209656,66.930832 
	C185.559402,67.295410 188.305298,67.543617 191.051208,67.791824 
	C191.379196,67.937607 191.707184,68.083382 192.426392,68.511902 
	C195.903534,70.830070 198.989441,72.865509 202.075363,74.900955 
	C202.075363,74.900955 202.139404,75.192413 202.374207,75.490936 
	C202.385635,76.809464 202.326797,77.904388 201.903763,78.833481 
	C201.086823,80.627602 200.064346,82.328140 199.127106,84.067482 
	C199.002716,84.882782 198.769241,85.698120 198.769608,86.513359 
	C198.789368,130.359344 198.828842,174.205307 198.955154,218.851257 
	C201.799820,224.285187 206.384201,226.375351 209.497772,223.490051 
	C211.578186,221.562149 212.961288,217.822678 212.976761,214.885040 
	C213.196152,173.269089 213.125015,131.651627 213.139008,90.034523 
	C213.139587,88.307060 213.285110,86.579651 213.396454,84.113823 
	C215.504715,85.379791 216.869553,86.253448 218.285248,87.034943 
	C219.846268,87.896652 221.453964,88.673752 223.041336,89.487709 
	C223.041336,89.487709 223.201416,89.936501 223.507721,90.350830 
	C224.566360,91.149178 225.318680,91.533195 226.071014,91.917206 
	C226.071014,91.917206 226.194977,92.192085 226.453491,92.487823 
	C227.497604,93.158310 228.283188,93.533073 229.068787,93.907829 
	C229.410355,94.304565 229.751923,94.701302 230.484390,95.442062 
	C235.938766,99.201035 241.002228,102.615974 246.065689,106.030914 
	C246.378830,106.395905 246.691956,106.760880 247.354523,107.441299 
	C248.446121,108.109634 249.188278,108.462540 249.930450,108.815445 
	C249.930450,108.815445 250.020538,109.059792 250.232315,109.454391 
	C250.800400,112.120483 251.463196,114.391678 251.465485,116.663528 
	C251.487595,138.660339 251.374069,160.657242 251.353775,182.654160 
	C251.345474,191.652161 251.405457,200.651428 251.559174,209.647980 
	C251.651077,215.026581 254.271896,217.941696 258.756073,218.033371 
	C263.460205,218.129562 266.147491,215.149017 266.356293,209.541031 
	C266.424469,207.710098 266.394073,205.875183 266.394226,204.042084 
	C266.396240,178.044540 266.363953,152.046890 266.452789,126.049637 
	C266.460388,123.824692 267.269409,121.602486 267.706146,119.379005 
	C278.073334,119.527534 288.440582,119.672615 298.807648,119.827843 
	C300.620178,119.854988 302.432007,119.924812 304.553558,120.490738 
	C304.840240,148.273865 304.813507,175.541168 304.808868,202.808472 
	C304.808685,203.963135 304.588440,205.481506 305.205048,206.201950 
	C306.830750,208.101379 308.670135,210.640503 310.787598,211.050827 
	C312.671875,211.415970 315.042694,209.270355 317.198792,208.232880 
	C317.198792,208.232880 317.225830,208.209625 317.533508,208.146667 
	C318.112976,207.374008 318.384766,206.664307 318.656555,205.954620 
	C318.825897,203.980026 319.139923,202.005646 319.142609,200.030823 
	C319.176270,175.377151 319.164764,150.723404 319.164825,126.069679 
	C319.164825,124.249634 319.164825,122.429596 319.164825,119.580238 
	C325.540894,119.580238 331.623962,119.580238 338.450500,119.585587 
	C344.049896,119.546883 348.905853,119.502831 353.761780,119.458786 
	C357.049866,119.565552 358.029480,121.146667 358.012573,124.494392 
	C357.890472,148.679550 357.997253,172.865875 358.039001,197.856186 
	C358.772522,203.476273 361.984467,204.845215 366.306549,204.479645 
	C370.326813,204.139618 372.247467,201.590088 372.246063,197.804413 
	C372.236359,171.911072 372.128967,146.017792 372.053070,120.124481 
	C375.534210,119.982330 379.015381,119.840179 383.022644,119.964462 
	C383.692169,122.380951 383.957947,124.530876 383.960266,126.681091 
	C383.988861,153.175262 383.999237,179.669525 383.954346,206.163666 
	C383.948456,209.635651 384.483826,213.532318 383.083923,216.413940 
	C382.286560,218.055283 378.075500,218.036102 375.404541,218.775009 
	C375.251923,218.817215 375.125244,218.953110 374.986511,219.045410 
	C373.600739,219.046692 372.214935,219.047974 369.997925,219.039642 
	C365.544525,219.559326 361.922333,220.088654 358.300171,220.617996 
	C357.753998,220.522873 357.207855,220.427750 356.062317,220.285049 
	C345.194916,220.973038 334.913635,221.563828 324.663483,222.496262 
	C318.086517,223.094543 311.555389,224.196228 305.003693,225.072266 
	C303.609680,225.071167 302.215637,225.070084 300.001526,225.067627 
	C295.905212,225.610733 292.628998,226.155212 289.352783,226.699707 
z"/>
<path fill="#040403" opacity="1.000000" stroke="none" 
	d="
M182.377274,41.650665 
	C177.464035,38.123230 172.857529,34.780884 168.251038,31.438534 
	C168.423264,30.945658 168.595490,30.452780 168.767700,29.959902 
	C173.162155,29.959902 177.556625,29.959867 181.951080,29.959906 
	C221.101120,29.960249 260.251556,29.884365 299.400452,30.095858 
	C302.780121,30.114117 306.651001,31.294548 309.442688,33.189114 
	C328.216492,45.929844 346.838837,58.898685 365.352509,72.016228 
	C379.149658,81.791977 392.711334,91.900177 406.369659,101.871552 
	C406.867462,102.234978 407.278259,102.717552 408.501770,103.875175 
	C405.879974,103.875175 404.134399,103.875183 402.388824,103.875175 
	C360.406677,103.874886 318.421783,103.634308 276.445007,104.109207 
	C269.390411,104.189011 265.020782,100.364738 260.191711,97.151337 
	C249.442581,89.998543 239.212723,82.069252 228.702957,74.551895 
	C213.394852,63.602436 198.026627,52.737003 182.377274,41.650665 
z"/>
<path fill="#080806" opacity="1.000000" stroke="none" 
	d="
M151.276062,70.035172 
	C153.804337,69.277016 155.992447,68.685593 158.603821,67.979759 
	C158.603821,123.656563 158.603821,178.698807 158.603821,234.833191 
	C150.482666,232.671951 142.940186,230.855545 135.572647,228.493454 
	C134.496506,228.148422 133.715347,225.204391 133.706802,223.458496 
	C133.562347,193.959991 133.546371,164.460770 133.536224,134.961716 
	C133.530945,119.629074 133.762253,104.293777 133.523651,88.965332 
	C133.448685,84.150146 134.518707,80.777626 138.979645,78.330658 
	C143.185776,76.023430 146.967499,72.942482 151.276062,70.035172 
M151.155045,138.859589 
	C150.817276,135.390839 148.083466,135.335815 146.001312,136.098785 
	C144.652893,136.592896 143.140472,138.805847 143.085205,140.299789 
	C142.796234,148.110626 143.002960,155.938354 142.923721,163.759079 
	C142.891708,166.918549 144.177597,168.213348 147.398254,168.212051 
	C150.688690,168.210724 151.238693,166.436066 151.221237,163.759903 
	C151.169113,155.772263 151.198349,147.784088 151.155045,138.859589 
z"/>
<path fill="#0E0D09" opacity="1.000000" stroke="none" 
	d="
M93.436737,122.051285 
	C91.747559,112.978508 95.605904,107.590233 102.961784,103.550156 
	C108.138458,100.706955 112.760590,96.854080 118.457993,92.873833 
	C118.457993,137.218353 118.457993,180.615387 118.457993,224.644379 
	C110.617180,222.736069 102.888412,221.058243 95.337692,218.788223 
	C94.261902,218.464783 93.523163,215.272034 93.515984,213.403870 
	C93.403374,184.115341 93.436615,154.826279 93.436302,125.537323 
	C93.436287,124.538826 93.436470,123.540329 93.436737,122.051285 
M101.892799,157.457458 
	C101.897690,159.612091 101.972565,161.769379 101.890327,163.920685 
	C101.779655,166.815811 102.971283,168.128647 105.981453,168.155060 
	C108.967812,168.181259 110.146545,166.998413 110.111908,164.031708 
	C110.019035,156.077179 110.037346,148.120514 110.103455,140.165451 
	C110.126854,137.349792 109.209297,135.825226 106.102463,135.867706 
	C103.169586,135.907791 101.865372,137.136871 101.894249,140.060303 
	C101.948265,145.529160 101.898987,150.999054 101.892799,157.457458 
z"/>
<path fill="#090806" opacity="1.000000" stroke="none" 
	d="
M56.316261,91.337852 
	C83.337395,72.202522 110.096252,53.318928 136.719498,34.246037 
	C139.528900,32.233383 141.388824,32.005318 144.104706,34.139404 
	C148.631790,37.696682 153.442505,40.892994 158.663361,44.619251 
	C156.164246,46.445946 154.230759,47.695992 152.482742,49.166477 
	C146.421066,54.265728 140.783112,59.953152 134.329773,64.485313 
	C119.365440,74.994698 104.006599,84.941628 88.846619,95.174248 
	C87.346954,96.186478 86.170876,97.664864 84.750305,98.809891 
	C79.637817,102.930740 73.901581,104.395096 67.253532,104.025101 
	C58.335239,103.528763 49.368542,103.902145 40.025131,102.966927 
	C45.355068,99.156311 50.685001,95.345703 56.316261,91.337852 
z"/>
<path fill="#CC970B" opacity="1.000000" stroke="none" 
	d="
M267.282654,119.322708 
	C267.269409,121.602486 266.460388,123.824692 266.452789,126.049637 
	C266.363953,152.046890 266.396240,178.044540 266.394226,204.042084 
	C266.394073,205.875183 266.424469,207.710098 266.356293,209.541031 
	C266.147491,215.149017 263.460205,218.129562 258.756073,218.033371 
	C254.271896,217.941696 251.651077,215.026581 251.559174,209.647980 
	C251.405457,200.651428 251.345474,191.652161 251.353775,182.654160 
	C251.374069,160.657242 251.487595,138.660339 251.465485,116.663528 
	C251.463196,114.391678 250.800400,112.120483 250.362213,109.445557 
	C254.526016,110.175613 253.949417,113.669495 253.952606,116.765419 
	C253.983459,146.743393 253.969818,176.721420 253.977478,206.699417 
	C253.977905,208.363495 253.491440,210.360718 254.231552,211.610870 
	C255.254242,213.338303 257.344116,215.734375 258.765137,215.600235 
	C260.589325,215.428009 262.597534,213.286942 263.768524,211.497986 
	C264.542633,210.315338 264.017792,208.260818 264.018250,206.596619 
	C264.025818,179.449875 263.998627,152.303040 264.072479,125.156494 
	C264.078583,122.913490 262.995697,119.825233 267.282654,119.322708 
z"/>
<path fill="#CC970B" opacity="1.000000" stroke="none" 
	d="
M177.871735,66.068008 
	C174.615723,66.649017 173.452850,68.403183 173.462646,72.147064 
	C173.599670,124.613159 173.551743,177.079727 173.560837,229.546173 
	C173.561890,235.585419 174.051132,235.928772 180.245621,235.415131 
	C186.874847,234.865463 193.514648,234.443649 200.593750,234.126846 
	C192.129898,235.401947 183.228912,236.582932 174.300140,237.490509 
	C173.658966,237.555679 172.564621,235.717621 172.138321,234.591354 
	C171.747055,233.557724 171.934814,232.290009 171.934677,231.125427 
	C171.928177,177.802002 171.922195,124.478584 171.938538,71.155159 
	C171.940399,65.089157 172.426407,64.685547 177.871735,66.068008 
z"/>
<path fill="#CC970B" opacity="1.000000" stroke="none" 
	d="
M222.933853,89.196770 
	C221.453964,88.673752 219.846268,87.896652 218.285248,87.034943 
	C216.869553,86.253448 215.504715,85.379791 213.396454,84.113823 
	C213.285110,86.579651 213.139587,88.307060 213.139008,90.034523 
	C213.125015,131.651627 213.196152,173.269089 212.976761,214.885040 
	C212.961288,217.822678 211.578186,221.562149 209.497772,223.490051 
	C206.384201,226.375351 201.799820,224.285187 199.108521,219.293716 
	C199.608261,219.175415 200.135208,219.326355 200.463852,219.668060 
	C202.649536,221.940567 205.389923,224.284668 208.190384,221.973282 
	C209.940094,220.529144 210.812805,217.216110 210.895691,214.702698 
	C211.202957,205.383301 211.019592,196.047699 211.019592,186.718185 
	C211.019638,153.731689 211.019272,120.745209 211.019058,87.758720 
	C211.019043,85.832634 211.019058,83.906555 211.019058,81.980469 
	C211.539169,81.649200 212.059265,81.317932 212.579376,80.986664 
	C215.995041,83.626389 219.410706,86.266106 222.933853,89.196770 
z"/>
<path fill="#CC970B" opacity="1.000000" stroke="none" 
	d="
M375.320068,219.248016 
	C375.125244,218.953110 375.251923,218.817215 375.404541,218.775009 
	C378.075500,218.036102 382.286560,218.055283 383.083923,216.413940 
	C384.483826,213.532318 383.948456,209.635651 383.954346,206.163666 
	C383.999237,179.669525 383.988861,153.175262 383.960266,126.681091 
	C383.957947,124.530876 383.692169,122.380951 383.381317,119.816536 
	C384.152679,120.847061 385.903076,122.287651 385.910736,123.737465 
	C386.069427,153.707458 386.066620,183.678589 385.997345,213.649261 
	C385.984253,219.317596 383.271851,220.725296 375.320068,219.248016 
z"/>
<path fill="#CC970B" opacity="1.000000" stroke="none" 
	d="
M316.833557,208.251923 
	C315.042694,209.270355 312.671875,211.415970 310.787598,211.050827 
	C308.670135,210.640503 306.830750,208.101379 305.205048,206.201950 
	C304.588440,205.481506 304.808685,203.963135 304.808868,202.808472 
	C304.813507,175.541168 304.840240,148.273865 304.960968,120.560211 
	C305.697144,122.174301 306.878967,124.231743 306.890320,126.295609 
	C307.020782,150.070145 306.973724,173.845657 306.974091,197.620895 
	C306.974091,198.950974 306.960968,200.281265 306.979462,201.611099 
	C307.085052,209.204742 309.553436,210.934860 316.833557,208.251923 
z"/>
<path fill="#CC970B" opacity="1.000000" stroke="none" 
	d="
M371.704773,120.268257 
	C372.128967,146.017792 372.236359,171.911072 372.246063,197.804413 
	C372.247467,201.590088 370.326813,204.139618 366.306549,204.479645 
	C361.984467,204.845215 358.772522,203.476273 358.166748,198.306274 
	C358.867767,198.521576 359.352356,199.294891 360.047180,199.623032 
	C362.243408,200.660263 364.739685,202.552582 366.689941,202.129944 
	C368.146667,201.814285 369.863770,198.435974 369.883636,196.405991 
	C370.110107,173.271683 369.996918,150.134247 370.093445,126.998154 
	C370.102600,124.801064 370.916321,122.607330 371.704773,120.268257 
z"/>
<path fill="#CC970B" opacity="1.000000" stroke="none" 
	d="
M235.394684,231.340881 
	C243.577744,230.183319 252.098907,229.097626 260.647491,228.309402 
	C269.226044,227.518417 277.832001,227.023972 286.792603,226.580322 
	C281.360535,227.690872 275.588287,228.867523 269.756958,229.494476 
	C260.240692,230.517639 250.689407,231.228256 241.144226,231.957169 
	C239.365326,232.093002 237.545639,231.694870 235.394684,231.340881 
z"/>
<path fill="#CC970B" opacity="1.000000" stroke="none" 
	d="
M305.347046,225.275848 
	C311.555389,224.196228 318.086517,223.094543 324.663483,222.496262 
	C334.913635,221.563828 345.194916,220.973038 355.823151,220.454163 
	C354.005188,221.367035 351.865936,222.485550 349.642578,222.690018 
	C336.471985,223.901260 323.283875,224.926529 310.095520,225.933929 
	C308.647156,226.044571 307.159729,225.643311 305.347046,225.275848 
z"/>
<path fill="#CC970B" opacity="1.000000" stroke="none" 
	d="
M245.951416,105.709534 
	C241.002228,102.615974 235.938766,99.201035 230.755249,95.460800 
	C235.702499,98.553062 240.769821,101.970604 245.951416,105.709534 
z"/>
<path fill="#CC970B" opacity="1.000000" stroke="none" 
	d="
M204.380463,234.326843 
	C208.156326,233.608276 212.274414,233.088943 216.759644,232.708618 
	C212.992081,233.407120 208.857391,233.966599 204.380463,234.326843 
z"/>
<path fill="#CC970B" opacity="1.000000" stroke="none" 
	d="
M199.431824,83.939163 
	C200.064346,82.328140 201.086823,80.627602 201.903763,78.833481 
	C202.326797,77.904388 202.385635,76.809464 202.523285,75.484238 
	C203.805176,75.766373 205.172821,76.353722 207.023453,77.148491 
	C204.196487,79.733170 201.966522,81.772011 199.431824,83.939163 
z"/>
<path fill="#CC970B" opacity="1.000000" stroke="none" 
	d="
M358.788757,220.725861 
	C361.922333,220.088654 365.544525,219.559326 369.600708,219.169708 
	C366.448944,219.817505 362.863129,220.325607 358.788757,220.725861 
z"/>
<path fill="#CC970B" opacity="1.000000" stroke="none" 
	d="
M201.986145,74.572205 
	C198.989441,72.865509 195.903534,70.830070 192.696503,68.463806 
	C195.682556,70.169815 198.789734,72.206635 201.986145,74.572205 
z"/>
<path fill="#CC970B" opacity="1.000000" stroke="none" 
	d="
M289.831360,226.790634 
	C292.628998,226.155212 295.905212,225.610733 299.605347,225.209229 
	C296.789490,225.862000 293.549713,226.371796 289.831360,226.790634 
z"/>
<path fill="#CC970B" opacity="1.000000" stroke="none" 
	d="
M220.832642,232.805832 
	C223.306839,232.185715 226.249664,231.656326 229.606384,231.271271 
	C227.113937,231.909256 224.207611,232.402908 220.832642,232.805832 
z"/>
<path fill="#CC970B" opacity="1.000000" stroke="none" 
	d="
M190.844711,67.466385 
	C188.305298,67.543617 185.559402,67.295410 182.525711,66.775444 
	C185.038025,66.716103 187.838120,66.928520 190.844711,67.466385 
z"/>
<path fill="#CC970B" opacity="1.000000" stroke="none" 
	d="
M353.403259,119.314590 
	C348.905853,119.502831 344.049896,119.546883 338.821106,119.336746 
	C343.313751,119.111839 348.179260,119.141113 353.403259,119.314590 
z"/>
<path fill="#CC970B" opacity="1.000000" stroke="none" 
	d="
M318.394562,206.075012 
	C318.384766,206.664307 318.112976,207.374008 317.539734,208.129959 
	C317.536377,207.515930 317.834473,206.855652 318.394562,206.075012 
z"/>
<path fill="#CC970B" opacity="1.000000" stroke="none" 
	d="
M225.942795,91.617165 
	C225.318680,91.533195 224.566360,91.149178 223.724152,90.450455 
	C224.361038,90.529533 225.087799,90.923332 225.942795,91.617165 
z"/>
<path fill="#CC970B" opacity="1.000000" stroke="none" 
	d="
M228.923538,93.606079 
	C228.283188,93.533073 227.497604,93.158310 226.601501,92.459114 
	C227.253433,92.524559 228.015869,92.914436 228.923538,93.606079 
z"/>
<path fill="#CC970B" opacity="1.000000" stroke="none" 
	d="
M249.817276,108.519951 
	C249.188278,108.462540 248.446121,108.109634 247.604370,107.444809 
	C248.237900,107.496750 248.971008,107.860603 249.817276,108.519951 
z"/>
<path fill="#C9950C" opacity="1.000000" stroke="none" 
	d="
M151.175415,139.327850 
	C151.198349,147.784088 151.169113,155.772263 151.221237,163.759903 
	C151.238693,166.436066 150.688690,168.210724 147.398254,168.212051 
	C144.177597,168.213348 142.891708,166.918549 142.923721,163.759079 
	C143.002960,155.938354 142.796234,148.110626 143.085205,140.299789 
	C143.140472,138.805847 144.652893,136.592896 146.001312,136.098785 
	C148.083466,135.335815 150.817276,135.390839 151.175415,139.327850 
z"/>
<path fill="#C9950C" opacity="1.000000" stroke="none" 
	d="
M101.892731,156.962982 
	C101.898987,150.999054 101.948265,145.529160 101.894249,140.060303 
	C101.865372,137.136871 103.169586,135.907791 106.102463,135.867706 
	C109.209297,135.825226 110.126854,137.349792 110.103455,140.165451 
	C110.037346,148.120514 110.019035,156.077179 110.111908,164.031708 
	C110.146545,166.998413 108.967812,168.181259 105.981453,168.155060 
	C102.971283,168.128647 101.779655,166.815811 101.890327,163.920685 
	C101.972565,161.769379 101.897690,159.612091 101.892731,156.962982 
z"/>
</svg>